<svg width="22" height="20" viewBox="0 0 22 20" fill="none" xmlns="http://www.w3.org/2000/svg">
<path d="M10.831 13.9863C10.8511 14.0119 10.8767 14.0326 10.9059 14.0469C10.9352 14.0611 10.9673 14.0685 10.9998 14.0685C11.0323 14.0685 11.0644 14.0611 11.0936 14.0469C11.1229 14.0326 11.1485 14.0119 11.1685 13.9863L14.1685 10.1908C14.2784 10.0515 14.1793 9.84522 13.9998 9.84522H12.015V0.780936C12.015 0.663079 11.9185 0.56665 11.8007 0.56665H10.1935C10.0757 0.56665 9.97925 0.663079 9.97925 0.780936V9.84254H7.99979C7.82033 9.84254 7.72122 10.0488 7.83104 10.1881L10.831 13.9863ZM20.8034 13.0488H19.1962C19.0784 13.0488 18.9819 13.1452 18.9819 13.2631V17.3881H3.01765V13.2631C3.01765 13.1452 2.92122 13.0488 2.80336 13.0488H1.19622C1.07836 13.0488 0.981934 13.1452 0.981934 13.2631V18.5667C0.981934 19.0408 1.36497 19.4238 1.83908 19.4238H20.1605C20.6346 19.4238 21.0176 19.0408 21.0176 18.5667V13.2631C21.0176 13.1452 20.9212 13.0488 20.8034 13.0488Z" fill="black" fill-opacity="0.75"/>
</svg>
