<svg width="635" height="71" viewBox="0 0 635 71" fill="none" xmlns="http://www.w3.org/2000/svg">
<path d="M68.724 3.368V29H66.42L50.94 8.372V29H48.168V3.368H50.436L65.916 23.996V3.368H68.724ZM90.6154 10.892V29H87.7354V25.724C87.2074 26.852 86.4034 27.728 85.3234 28.352C84.2674 28.952 83.0314 29.252 81.6154 29.252C80.0074 29.252 78.5914 28.868 77.3674 28.1C76.1674 27.332 75.2314 26.252 74.5594 24.86C73.9114 23.444 73.5874 21.8 73.5874 19.928C73.5874 18.056 73.9234 16.412 74.5954 14.996C75.2674 13.556 76.2034 12.44 77.4034 11.648C78.6274 10.856 80.0314 10.46 81.6154 10.46C83.0314 10.46 84.2674 10.772 85.3234 11.396C86.3794 12.02 87.1834 12.896 87.7354 14.024V10.892H90.6154ZM82.1914 26.84C83.9674 26.84 85.3354 26.24 86.2954 25.04C87.2554 23.816 87.7354 22.088 87.7354 19.856C87.7354 17.624 87.2554 15.908 86.2954 14.708C85.3354 13.508 83.9674 12.908 82.1914 12.908C80.4154 12.908 79.0234 13.532 78.0154 14.78C77.0314 16.004 76.5394 17.72 76.5394 19.928C76.5394 22.136 77.0314 23.84 78.0154 25.04C78.9994 26.24 80.3914 26.84 82.1914 26.84ZM100.141 13.196V23.096C100.141 24.44 100.417 25.388 100.969 25.94C101.521 26.468 102.301 26.732 103.309 26.732C103.981 26.732 104.629 26.624 105.253 26.408V28.892C104.509 29.132 103.669 29.252 102.733 29.252C101.005 29.252 99.6493 28.772 98.6653 27.812C97.7053 26.828 97.2253 25.388 97.2253 23.492V13.196H93.6973V10.892H97.2253V6.248L100.141 5.204V10.892H105.325V13.196H100.141ZM108.839 10.892H111.755V29H108.839V10.892ZM112.115 3.224V6.536H108.551V3.224H112.115ZM124.905 29.252C123.201 29.252 121.701 28.868 120.405 28.1C119.109 27.332 118.101 26.24 117.381 24.824C116.685 23.408 116.337 21.752 116.337 19.856C116.337 17.96 116.685 16.304 117.381 14.888C118.101 13.472 119.109 12.38 120.405 11.612C121.701 10.844 123.201 10.46 124.905 10.46C126.609 10.46 128.109 10.844 129.405 11.612C130.701 12.38 131.697 13.472 132.393 14.888C133.113 16.304 133.473 17.96 133.473 19.856C133.473 21.752 133.113 23.408 132.393 24.824C131.697 26.24 130.701 27.332 129.405 28.1C128.109 28.868 126.609 29.252 124.905 29.252ZM124.905 26.84C126.705 26.84 128.085 26.252 129.045 25.076C130.005 23.876 130.485 22.136 130.485 19.856C130.485 17.648 129.993 15.944 129.009 14.744C128.025 13.52 126.657 12.908 124.905 12.908C123.129 12.908 121.749 13.52 120.765 14.744C119.781 15.944 119.289 17.648 119.289 19.856C119.289 22.136 119.769 23.876 120.729 25.076C121.713 26.252 123.105 26.84 124.905 26.84ZM147.055 10.46C151.399 10.46 153.571 12.848 153.571 17.624V29H150.655V17.768C150.655 16.088 150.319 14.864 149.647 14.096C148.975 13.304 147.919 12.908 146.479 12.908C144.799 12.908 143.455 13.424 142.447 14.456C141.439 15.488 140.935 16.88 140.935 18.632V29H138.019V15.968C138.019 14.096 137.923 12.404 137.731 10.892H140.503L140.791 14.132C141.343 12.956 142.171 12.056 143.275 11.432C144.379 10.784 145.639 10.46 147.055 10.46ZM175.026 10.892V29H172.146V25.724C171.618 26.852 170.814 27.728 169.734 28.352C168.678 28.952 167.442 29.252 166.026 29.252C164.418 29.252 163.002 28.868 161.778 28.1C160.578 27.332 159.642 26.252 158.97 24.86C158.322 23.444 157.998 21.8 157.998 19.928C157.998 18.056 158.334 16.412 159.006 14.996C159.678 13.556 160.614 12.44 161.814 11.648C163.038 10.856 164.442 10.46 166.026 10.46C167.442 10.46 168.678 10.772 169.734 11.396C170.79 12.02 171.594 12.896 172.146 14.024V10.892H175.026ZM166.602 26.84C168.378 26.84 169.746 26.24 170.706 25.04C171.666 23.816 172.146 22.088 172.146 19.856C172.146 17.624 171.666 15.908 170.706 14.708C169.746 13.508 168.378 12.908 166.602 12.908C164.826 12.908 163.434 13.532 162.426 14.78C161.442 16.004 160.95 17.72 160.95 19.928C160.95 22.136 161.442 23.84 162.426 25.04C163.41 26.24 164.802 26.84 166.602 26.84ZM180.663 2.504H183.579V29H180.663V2.504ZM215.764 22.412H202.372L199.528 29H196.468L207.736 3.368H210.328L221.596 29H218.572L215.764 22.412ZM214.72 19.964L209.068 6.788L203.416 19.964H214.72ZM233.49 10.46C234.09 10.46 234.642 10.532 235.146 10.676L235.074 13.34C234.522 13.148 233.886 13.052 233.166 13.052C231.414 13.052 230.106 13.604 229.242 14.708C228.402 15.788 227.982 17.108 227.982 18.668V29H225.066V15.968C225.066 14.096 224.97 12.404 224.778 10.892H227.55L227.838 14.24C228.294 13.016 229.026 12.08 230.034 11.432C231.042 10.784 232.194 10.46 233.49 10.46ZM258.197 10.46C262.205 10.46 264.209 12.848 264.209 17.624V29H261.293V17.768C261.293 16.064 260.993 14.828 260.393 14.06C259.817 13.292 258.869 12.908 257.549 12.908C256.013 12.908 254.813 13.424 253.949 14.456C253.085 15.488 252.653 16.892 252.653 18.668V29H249.737V17.768C249.737 16.088 249.437 14.864 248.837 14.096C248.237 13.304 247.277 12.908 245.957 12.908C244.421 12.908 243.209 13.424 242.321 14.456C241.457 15.488 241.025 16.892 241.025 18.668V29H238.109V15.968C238.109 14.096 238.013 12.404 237.821 10.892H240.593L240.881 14.06C241.385 12.908 242.129 12.02 243.113 11.396C244.121 10.772 245.285 10.46 246.605 10.46C248.045 10.46 249.221 10.748 250.133 11.324C251.045 11.9 251.717 12.788 252.149 13.988C252.701 12.908 253.505 12.056 254.561 11.432C255.641 10.784 256.853 10.46 258.197 10.46ZM284.905 19.856H271.621C271.645 22.16 272.173 23.9 273.205 25.076C274.261 26.252 275.785 26.84 277.777 26.84C279.889 26.84 281.833 26.132 283.609 24.716L284.581 26.84C283.789 27.584 282.769 28.172 281.521 28.604C280.297 29.036 279.037 29.252 277.741 29.252C274.909 29.252 272.689 28.424 271.081 26.768C269.473 25.088 268.669 22.796 268.669 19.892C268.669 18.044 269.029 16.412 269.749 14.996C270.469 13.556 271.477 12.44 272.773 11.648C274.069 10.856 275.545 10.46 277.201 10.46C279.601 10.46 281.485 11.252 282.853 12.836C284.221 14.396 284.905 16.556 284.905 19.316V19.856ZM277.237 12.728C275.725 12.728 274.489 13.184 273.529 14.096C272.593 15.008 271.993 16.292 271.729 17.948H282.277C282.133 16.244 281.629 14.948 280.765 14.06C279.925 13.172 278.749 12.728 277.237 12.728ZM298.367 10.46C302.711 10.46 304.883 12.848 304.883 17.624V29H301.967V17.768C301.967 16.088 301.631 14.864 300.959 14.096C300.287 13.304 299.231 12.908 297.791 12.908C296.111 12.908 294.767 13.424 293.759 14.456C292.751 15.488 292.247 16.88 292.247 18.632V29H289.331V15.968C289.331 14.096 289.235 12.404 289.043 10.892H291.815L292.103 14.132C292.655 12.956 293.483 12.056 294.587 11.432C295.691 10.784 296.951 10.46 298.367 10.46ZM310.39 10.892H313.306V29H310.39V10.892ZM313.666 3.224V6.536H310.102V3.224H313.666ZM334.916 10.892V29H332.036V25.724C331.508 26.852 330.704 27.728 329.624 28.352C328.568 28.952 327.332 29.252 325.916 29.252C324.308 29.252 322.892 28.868 321.668 28.1C320.468 27.332 319.532 26.252 318.86 24.86C318.212 23.444 317.888 21.8 317.888 19.928C317.888 18.056 318.224 16.412 318.896 14.996C319.568 13.556 320.504 12.44 321.704 11.648C322.928 10.856 324.332 10.46 325.916 10.46C327.332 10.46 328.568 10.772 329.624 11.396C330.68 12.02 331.484 12.896 332.036 14.024V10.892H334.916ZM326.492 26.84C328.268 26.84 329.636 26.24 330.596 25.04C331.556 23.816 332.036 22.088 332.036 19.856C332.036 17.624 331.556 15.908 330.596 14.708C329.636 13.508 328.268 12.908 326.492 12.908C324.716 12.908 323.324 13.532 322.316 14.78C321.332 16.004 320.84 17.72 320.84 19.928C320.84 22.136 321.332 23.84 322.316 25.04C323.3 26.24 324.692 26.84 326.492 26.84ZM349.59 10.46C353.934 10.46 356.106 12.848 356.106 17.624V29H353.19V17.768C353.19 16.088 352.854 14.864 352.182 14.096C351.51 13.304 350.454 12.908 349.014 12.908C347.334 12.908 345.99 13.424 344.982 14.456C343.974 15.488 343.47 16.88 343.47 18.632V29H340.554V15.968C340.554 14.096 340.458 12.404 340.266 10.892H343.038L343.326 14.132C343.878 12.956 344.706 12.056 345.81 11.432C346.914 10.784 348.174 10.46 349.59 10.46ZM379.495 29.288C375.487 29.288 372.295 28.208 369.919 26.048L371.035 23.78C372.307 24.86 373.603 25.628 374.923 26.084C376.243 26.54 377.779 26.768 379.531 26.768C381.595 26.768 383.179 26.372 384.283 25.58C385.411 24.764 385.975 23.624 385.975 22.16C385.975 21.296 385.699 20.6 385.147 20.072C384.619 19.52 383.911 19.088 383.023 18.776C382.159 18.464 380.995 18.14 379.531 17.804C377.563 17.372 375.943 16.904 374.671 16.4C373.399 15.896 372.367 15.176 371.575 14.24C370.783 13.28 370.387 12.032 370.387 10.496C370.387 9.032 370.771 7.748 371.539 6.644C372.307 5.516 373.387 4.64 374.779 4.016C376.195 3.392 377.839 3.08 379.711 3.08C381.487 3.08 383.143 3.356 384.679 3.908C386.215 4.46 387.511 5.264 388.567 6.32L387.415 8.588C386.215 7.556 384.991 6.8 383.743 6.32C382.519 5.84 381.175 5.6 379.711 5.6C377.719 5.6 376.159 6.032 375.031 6.896C373.903 7.736 373.339 8.9 373.339 10.388C373.339 11.684 373.831 12.656 374.815 13.304C375.799 13.952 377.311 14.516 379.351 14.996C381.559 15.524 383.287 16.016 384.535 16.472C385.807 16.904 386.863 17.576 387.703 18.488C388.543 19.376 388.963 20.564 388.963 22.052C388.963 23.492 388.579 24.764 387.811 25.868C387.043 26.948 385.939 27.788 384.499 28.388C383.083 28.988 381.415 29.288 379.495 29.288ZM409.377 10.892V29H406.497V25.724C405.969 26.852 405.165 27.728 404.085 28.352C403.029 28.952 401.793 29.252 400.377 29.252C398.769 29.252 397.353 28.868 396.129 28.1C394.929 27.332 393.993 26.252 393.321 24.86C392.673 23.444 392.349 21.8 392.349 19.928C392.349 18.056 392.685 16.412 393.357 14.996C394.029 13.556 394.965 12.44 396.165 11.648C397.389 10.856 398.793 10.46 400.377 10.46C401.793 10.46 403.029 10.772 404.085 11.396C405.141 12.02 405.945 12.896 406.497 14.024V10.892H409.377ZM400.953 26.84C402.729 26.84 404.097 26.24 405.057 25.04C406.017 23.816 406.497 22.088 406.497 19.856C406.497 17.624 406.017 15.908 405.057 14.708C404.097 13.508 402.729 12.908 400.953 12.908C399.177 12.908 397.785 13.532 396.777 14.78C395.793 16.004 395.301 17.72 395.301 19.928C395.301 22.136 395.793 23.84 396.777 25.04C397.761 26.24 399.153 26.84 400.953 26.84ZM415.015 2.504H417.931V29H415.015V2.504ZM439.541 10.892V29H436.661V25.724C436.133 26.852 435.329 27.728 434.249 28.352C433.193 28.952 431.957 29.252 430.541 29.252C428.933 29.252 427.517 28.868 426.293 28.1C425.093 27.332 424.157 26.252 423.485 24.86C422.837 23.444 422.513 21.8 422.513 19.928C422.513 18.056 422.849 16.412 423.521 14.996C424.193 13.556 425.129 12.44 426.329 11.648C427.553 10.856 428.957 10.46 430.541 10.46C431.957 10.46 433.193 10.772 434.249 11.396C435.305 12.02 436.109 12.896 436.661 14.024V10.892H439.541ZM431.117 26.84C432.893 26.84 434.261 26.24 435.221 25.04C436.181 23.816 436.661 22.088 436.661 19.856C436.661 17.624 436.181 15.908 435.221 14.708C434.261 13.508 432.893 12.908 431.117 12.908C429.341 12.908 427.949 13.532 426.941 14.78C425.957 16.004 425.465 17.72 425.465 19.928C425.465 22.136 425.957 23.84 426.941 25.04C427.925 26.24 429.317 26.84 431.117 26.84ZM453.603 10.46C454.203 10.46 454.755 10.532 455.259 10.676L455.187 13.34C454.635 13.148 453.999 13.052 453.279 13.052C451.527 13.052 450.219 13.604 449.355 14.708C448.515 15.788 448.095 17.108 448.095 18.668V29H445.179V15.968C445.179 14.096 445.083 12.404 444.891 10.892H447.663L447.951 14.24C448.407 13.016 449.139 12.08 450.147 11.432C451.155 10.784 452.307 10.46 453.603 10.46ZM458.222 10.892H461.138V29H458.222V10.892ZM461.498 3.224V6.536H457.934V3.224H461.498ZM481.956 19.856H468.672C468.696 22.16 469.224 23.9 470.256 25.076C471.312 26.252 472.836 26.84 474.828 26.84C476.94 26.84 478.884 26.132 480.66 24.716L481.632 26.84C480.84 27.584 479.82 28.172 478.572 28.604C477.348 29.036 476.088 29.252 474.792 29.252C471.96 29.252 469.74 28.424 468.132 26.768C466.524 25.088 465.72 22.796 465.72 19.892C465.72 18.044 466.08 16.412 466.8 14.996C467.52 13.556 468.528 12.44 469.824 11.648C471.12 10.856 472.596 10.46 474.252 10.46C476.652 10.46 478.536 11.252 479.904 12.836C481.272 14.396 481.956 16.556 481.956 19.316V19.856ZM474.288 12.728C472.776 12.728 471.54 13.184 470.58 14.096C469.644 15.008 469.044 16.292 468.78 17.948H479.328C479.184 16.244 478.68 14.948 477.816 14.06C476.976 13.172 475.8 12.728 474.288 12.728ZM492.502 29.252C489.454 29.252 487.042 28.472 485.266 26.912L486.238 24.752C487.222 25.52 488.218 26.072 489.226 26.408C490.234 26.744 491.362 26.912 492.61 26.912C493.978 26.912 495.01 26.684 495.706 26.228C496.426 25.748 496.786 25.064 496.786 24.176C496.786 23.456 496.546 22.88 496.066 22.448C495.586 22.016 494.794 21.68 493.69 21.44L490.63 20.72C489.118 20.384 487.942 19.784 487.102 18.92C486.286 18.056 485.878 17.024 485.878 15.824C485.878 14.24 486.514 12.956 487.786 11.972C489.058 10.964 490.738 10.46 492.826 10.46C494.098 10.46 495.298 10.664 496.426 11.072C497.554 11.48 498.502 12.068 499.27 12.836L498.298 14.96C496.594 13.544 494.77 12.836 492.826 12.836C491.53 12.836 490.522 13.088 489.802 13.592C489.106 14.072 488.758 14.756 488.758 15.644C488.758 16.388 488.974 16.976 489.406 17.408C489.862 17.84 490.582 18.176 491.566 18.416L494.626 19.172C496.306 19.556 497.554 20.156 498.37 20.972C499.186 21.764 499.594 22.808 499.594 24.104C499.594 25.664 498.958 26.912 497.686 27.848C496.414 28.784 494.686 29.252 492.502 29.252ZM530.764 22.412H517.372L514.528 29H511.468L522.736 3.368H525.328L536.596 29H533.572L530.764 22.412ZM529.72 19.964L524.068 6.788L518.416 19.964H529.72ZM548.49 10.46C549.09 10.46 549.642 10.532 550.146 10.676L550.074 13.34C549.522 13.148 548.886 13.052 548.166 13.052C546.414 13.052 545.106 13.604 544.242 14.708C543.402 15.788 542.982 17.108 542.982 18.668V29H540.066V15.968C540.066 14.096 539.97 12.404 539.778 10.892H542.55L542.838 14.24C543.294 13.016 544.026 12.08 545.034 11.432C546.042 10.784 547.194 10.46 548.49 10.46ZM560.353 29.252C558.601 29.252 557.065 28.868 555.745 28.1C554.449 27.332 553.441 26.252 552.721 24.86C552.025 23.444 551.677 21.8 551.677 19.928C551.677 18.056 552.037 16.412 552.757 14.996C553.477 13.556 554.497 12.44 555.817 11.648C557.161 10.856 558.721 10.46 560.497 10.46C561.721 10.46 562.897 10.676 564.025 11.108C565.177 11.516 566.125 12.092 566.869 12.836L565.897 14.996C564.985 14.276 564.097 13.748 563.233 13.412C562.393 13.076 561.529 12.908 560.641 12.908C558.793 12.908 557.341 13.532 556.285 14.78C555.229 16.004 554.701 17.72 554.701 19.928C554.701 22.112 555.217 23.816 556.249 25.04C557.305 26.24 558.769 26.84 560.641 26.84C561.529 26.84 562.393 26.672 563.233 26.336C564.097 26 564.985 25.472 565.897 24.752L566.869 26.912C566.101 27.632 565.129 28.208 563.953 28.64C562.801 29.048 561.601 29.252 560.353 29.252ZM579.617 10.46C583.961 10.46 586.133 12.848 586.133 17.624V29H583.217V17.768C583.217 16.088 582.881 14.864 582.209 14.096C581.537 13.304 580.481 12.908 579.041 12.908C577.361 12.908 576.017 13.424 575.009 14.456C574.001 15.488 573.497 16.88 573.497 18.632V29H570.581V2.504H573.497V13.844C574.073 12.74 574.889 11.9 575.945 11.324C577.025 10.748 578.249 10.46 579.617 10.46ZM591.64 10.892H594.556V29H591.64V10.892ZM594.916 3.224V6.536H591.352V3.224H594.916ZM616.13 10.928L608.318 29H605.546L597.842 10.928H600.902L607.022 25.832L613.214 10.928H616.13ZM634.288 19.856H621.004C621.028 22.16 621.556 23.9 622.588 25.076C623.644 26.252 625.168 26.84 627.16 26.84C629.272 26.84 631.216 26.132 632.992 24.716L633.964 26.84C633.172 27.584 632.152 28.172 630.904 28.604C629.68 29.036 628.42 29.252 627.124 29.252C624.292 29.252 622.072 28.424 620.464 26.768C618.856 25.088 618.052 22.796 618.052 19.892C618.052 18.044 618.412 16.412 619.132 14.996C619.852 13.556 620.86 12.44 622.156 11.648C623.452 10.856 624.928 10.46 626.584 10.46C628.984 10.46 630.868 11.252 632.236 12.836C633.604 14.396 634.288 16.556 634.288 19.316V19.856ZM626.62 12.728C625.108 12.728 623.872 13.184 622.912 14.096C621.976 15.008 621.376 16.292 621.112 17.948H631.66C631.516 16.244 631.012 14.948 630.148 14.06C629.308 13.172 628.132 12.728 626.62 12.728Z" fill="black" fill-opacity="0.75"/>
<path d="M60.366 53.184V66H58.512V60.258H51.33V66H49.494V53.184H51.33V58.728H58.512V53.184H60.366ZM70.9236 61.5H64.4436C64.5036 63.624 65.4696 64.686 67.3416 64.686C68.3856 64.686 69.3396 64.344 70.2036 63.66L70.7616 64.956C70.3536 65.316 69.8316 65.604 69.1956 65.82C68.5716 66.024 67.9416 66.126 67.3056 66.126C65.8536 66.126 64.7136 65.712 63.8856 64.884C63.0576 64.044 62.6436 62.898 62.6436 61.446C62.6436 60.522 62.8236 59.7 63.1836 58.98C63.5556 58.26 64.0716 57.702 64.7316 57.306C65.3916 56.91 66.1416 56.712 66.9816 56.712C68.2056 56.712 69.1656 57.108 69.8616 57.9C70.5696 58.692 70.9236 59.79 70.9236 61.194V61.5ZM67.0176 58.062C66.3336 58.062 65.7756 58.266 65.3436 58.674C64.9116 59.082 64.6356 59.664 64.5156 60.42H69.3216C69.2496 59.652 69.0156 59.07 68.6196 58.674C68.2236 58.266 67.6896 58.062 67.0176 58.062ZM73.0097 52.752H74.8097V66H73.0097V52.752ZM82.2806 56.712C83.0606 56.712 83.7566 56.91 84.3686 57.306C84.9806 57.702 85.4546 58.26 85.7906 58.98C86.1386 59.7 86.3126 60.528 86.3126 61.464C86.3126 62.4 86.1446 63.222 85.8086 63.93C85.4726 64.626 84.9986 65.166 84.3866 65.55C83.7746 65.934 83.0726 66.126 82.2806 66.126C81.5846 66.126 80.9726 65.982 80.4446 65.694C79.9286 65.394 79.5386 64.968 79.2746 64.416V69.888H77.4746V59.484C77.4746 58.536 77.4266 57.684 77.3306 56.928H79.0226L79.2026 58.602C79.4426 58.002 79.8326 57.54 80.3726 57.216C80.9126 56.88 81.5486 56.712 82.2806 56.712ZM81.8666 64.686C82.6826 64.686 83.3186 64.404 83.7746 63.84C84.2306 63.276 84.4586 62.484 84.4586 61.464C84.4586 60.432 84.2306 59.628 83.7746 59.052C83.3186 58.464 82.6826 58.17 81.8666 58.17C81.0266 58.17 80.3846 58.452 79.9406 59.016C79.4966 59.58 79.2746 60.384 79.2746 61.428C79.2746 62.472 79.4966 63.276 79.9406 63.84C80.3966 64.404 81.0386 64.686 81.8666 64.686ZM101.126 56.928V66H99.3622V64.488C99.0742 65.016 98.6782 65.424 98.1742 65.712C97.6702 65.988 97.1002 66.126 96.4642 66.126C94.2802 66.126 93.1882 64.914 93.1882 62.49V56.928H94.9882V62.472C94.9882 63.216 95.1382 63.768 95.4382 64.128C95.7502 64.476 96.2182 64.65 96.8422 64.65C97.5862 64.65 98.1802 64.41 98.6242 63.93C99.0802 63.45 99.3082 62.814 99.3082 62.022V56.928H101.126ZM106.957 66.126C105.373 66.126 104.125 65.742 103.213 64.974L103.753 63.66C104.701 64.38 105.787 64.74 107.011 64.74C107.635 64.74 108.109 64.638 108.433 64.434C108.757 64.218 108.919 63.918 108.919 63.534C108.919 63.21 108.805 62.958 108.577 62.778C108.361 62.586 107.989 62.424 107.461 62.292L105.949 61.932C105.157 61.764 104.551 61.47 104.131 61.05C103.723 60.618 103.519 60.084 103.519 59.448C103.519 58.632 103.843 57.972 104.491 57.468C105.151 56.964 106.021 56.712 107.101 56.712C107.749 56.712 108.361 56.814 108.937 57.018C109.525 57.222 110.023 57.51 110.431 57.882L109.873 59.16C108.997 58.464 108.073 58.116 107.101 58.116C106.513 58.116 106.057 58.23 105.733 58.458C105.409 58.674 105.247 58.98 105.247 59.376C105.247 59.688 105.349 59.94 105.553 60.132C105.757 60.324 106.081 60.474 106.525 60.582L108.073 60.96C108.937 61.152 109.573 61.458 109.981 61.878C110.401 62.286 110.611 62.82 110.611 63.48C110.611 64.296 110.281 64.944 109.621 65.424C108.973 65.892 108.085 66.126 106.957 66.126ZM119.911 58.332V62.886C119.911 63.51 120.043 63.954 120.307 64.218C120.583 64.47 120.961 64.596 121.441 64.596C121.753 64.596 122.071 64.548 122.395 64.452V65.928C121.999 66.06 121.549 66.126 121.045 66.126C120.109 66.126 119.383 65.862 118.867 65.334C118.351 64.806 118.093 64.038 118.093 63.03V58.332H116.329V56.928H118.093V54.66L119.911 54.03V56.928H122.413V58.332H119.911ZM127.998 66.126C127.11 66.126 126.33 65.934 125.658 65.55C124.986 65.166 124.464 64.62 124.092 63.912C123.732 63.204 123.552 62.376 123.552 61.428C123.552 60.48 123.732 59.652 124.092 58.944C124.464 58.224 124.986 57.672 125.658 57.288C126.33 56.904 127.11 56.712 127.998 56.712C128.874 56.712 129.648 56.904 130.32 57.288C130.992 57.672 131.508 58.224 131.868 58.944C132.24 59.652 132.426 60.48 132.426 61.428C132.426 62.376 132.24 63.204 131.868 63.912C131.508 64.62 130.992 65.166 130.32 65.55C129.648 65.934 128.874 66.126 127.998 66.126ZM127.98 64.686C128.82 64.686 129.462 64.41 129.906 63.858C130.35 63.306 130.572 62.496 130.572 61.428C130.572 60.384 130.344 59.58 129.888 59.016C129.444 58.452 128.814 58.17 127.998 58.17C127.17 58.17 126.528 58.452 126.072 59.016C125.616 59.58 125.388 60.384 125.388 61.428C125.388 62.496 125.61 63.306 126.054 63.858C126.51 64.41 127.152 64.686 127.98 64.686ZM142.518 66.126C140.934 66.126 139.686 65.742 138.774 64.974L139.314 63.66C140.262 64.38 141.348 64.74 142.572 64.74C143.196 64.74 143.67 64.638 143.994 64.434C144.318 64.218 144.48 63.918 144.48 63.534C144.48 63.21 144.366 62.958 144.138 62.778C143.922 62.586 143.55 62.424 143.022 62.292L141.51 61.932C140.718 61.764 140.112 61.47 139.692 61.05C139.284 60.618 139.08 60.084 139.08 59.448C139.08 58.632 139.404 57.972 140.052 57.468C140.712 56.964 141.582 56.712 142.662 56.712C143.31 56.712 143.922 56.814 144.498 57.018C145.086 57.222 145.584 57.51 145.992 57.882L145.434 59.16C144.558 58.464 143.634 58.116 142.662 58.116C142.074 58.116 141.618 58.23 141.294 58.458C140.97 58.674 140.808 58.98 140.808 59.376C140.808 59.688 140.91 59.94 141.114 60.132C141.318 60.324 141.642 60.474 142.086 60.582L143.634 60.96C144.498 61.152 145.134 61.458 145.542 61.878C145.962 62.286 146.172 62.82 146.172 63.48C146.172 64.296 145.842 64.944 145.182 65.424C144.534 65.892 143.646 66.126 142.518 66.126ZM156.198 56.928V66H154.434V64.488C154.146 65.016 153.75 65.424 153.246 65.712C152.742 65.988 152.172 66.126 151.536 66.126C149.352 66.126 148.26 64.914 148.26 62.49V56.928H150.06V62.472C150.06 63.216 150.21 63.768 150.51 64.128C150.822 64.476 151.29 64.65 151.914 64.65C152.658 64.65 153.252 64.41 153.696 63.93C154.152 63.45 154.38 62.814 154.38 62.022V56.928H156.198ZM163.667 56.712C164.447 56.712 165.143 56.91 165.755 57.306C166.367 57.702 166.841 58.26 167.177 58.98C167.525 59.7 167.699 60.528 167.699 61.464C167.699 62.4 167.531 63.222 167.195 63.93C166.859 64.626 166.385 65.166 165.773 65.55C165.161 65.934 164.459 66.126 163.667 66.126C162.971 66.126 162.359 65.982 161.831 65.694C161.315 65.394 160.925 64.968 160.661 64.416V69.888H158.861V59.484C158.861 58.536 158.813 57.684 158.717 56.928H160.409L160.589 58.602C160.829 58.002 161.219 57.54 161.759 57.216C162.299 56.88 162.935 56.712 163.667 56.712ZM163.253 64.686C164.069 64.686 164.705 64.404 165.161 63.84C165.617 63.276 165.845 62.484 165.845 61.464C165.845 60.432 165.617 59.628 165.161 59.052C164.705 58.464 164.069 58.17 163.253 58.17C162.413 58.17 161.771 58.452 161.327 59.016C160.883 59.58 160.661 60.384 160.661 61.428C160.661 62.472 160.883 63.276 161.327 63.84C161.783 64.404 162.425 64.686 163.253 64.686ZM174.636 56.712C175.416 56.712 176.112 56.91 176.724 57.306C177.336 57.702 177.81 58.26 178.146 58.98C178.494 59.7 178.668 60.528 178.668 61.464C178.668 62.4 178.5 63.222 178.164 63.93C177.828 64.626 177.354 65.166 176.742 65.55C176.13 65.934 175.428 66.126 174.636 66.126C173.94 66.126 173.328 65.982 172.8 65.694C172.284 65.394 171.894 64.968 171.63 64.416V69.888H169.83V59.484C169.83 58.536 169.782 57.684 169.686 56.928H171.378L171.558 58.602C171.798 58.002 172.188 57.54 172.728 57.216C173.268 56.88 173.904 56.712 174.636 56.712ZM174.222 64.686C175.038 64.686 175.674 64.404 176.13 63.84C176.586 63.276 176.814 62.484 176.814 61.464C176.814 60.432 176.586 59.628 176.13 59.052C175.674 58.464 175.038 58.17 174.222 58.17C173.382 58.17 172.74 58.452 172.296 59.016C171.852 59.58 171.63 60.384 171.63 61.428C171.63 62.472 171.852 63.276 172.296 63.84C172.752 64.404 173.394 64.686 174.222 64.686ZM184.705 66.126C183.817 66.126 183.037 65.934 182.365 65.55C181.693 65.166 181.171 64.62 180.799 63.912C180.439 63.204 180.259 62.376 180.259 61.428C180.259 60.48 180.439 59.652 180.799 58.944C181.171 58.224 181.693 57.672 182.365 57.288C183.037 56.904 183.817 56.712 184.705 56.712C185.581 56.712 186.355 56.904 187.027 57.288C187.699 57.672 188.215 58.224 188.575 58.944C188.947 59.652 189.133 60.48 189.133 61.428C189.133 62.376 188.947 63.204 188.575 63.912C188.215 64.62 187.699 65.166 187.027 65.55C186.355 65.934 185.581 66.126 184.705 66.126ZM184.687 64.686C185.527 64.686 186.169 64.41 186.613 63.858C187.057 63.306 187.279 62.496 187.279 61.428C187.279 60.384 187.051 59.58 186.595 59.016C186.151 58.452 185.521 58.17 184.705 58.17C183.877 58.17 183.235 58.452 182.779 59.016C182.323 59.58 182.095 60.384 182.095 61.428C182.095 62.496 182.317 63.306 182.761 63.858C183.217 64.41 183.859 64.686 184.687 64.686ZM195.776 56.712C196.052 56.712 196.34 56.754 196.64 56.838L196.604 58.494C196.28 58.374 195.926 58.314 195.542 58.314C194.714 58.314 194.09 58.566 193.67 59.07C193.262 59.562 193.058 60.186 193.058 60.942V66H191.258V59.484C191.258 58.536 191.21 57.684 191.114 56.928H192.806L192.968 58.566C193.208 57.966 193.58 57.51 194.084 57.198C194.588 56.874 195.152 56.712 195.776 56.712ZM201.139 58.332V62.886C201.139 63.51 201.271 63.954 201.535 64.218C201.811 64.47 202.189 64.596 202.669 64.596C202.981 64.596 203.299 64.548 203.623 64.452V65.928C203.227 66.06 202.777 66.126 202.273 66.126C201.337 66.126 200.611 65.862 200.095 65.334C199.579 64.806 199.321 64.038 199.321 63.03V58.332H197.557V56.928H199.321V54.66L201.139 54.03V56.928H203.641V58.332H201.139ZM214.025 66.126C213.137 66.126 212.357 65.934 211.685 65.55C211.013 65.166 210.491 64.62 210.119 63.912C209.759 63.204 209.579 62.376 209.579 61.428C209.579 60.48 209.759 59.652 210.119 58.944C210.491 58.224 211.013 57.672 211.685 57.288C212.357 56.904 213.137 56.712 214.025 56.712C214.901 56.712 215.675 56.904 216.347 57.288C217.019 57.672 217.535 58.224 217.895 58.944C218.267 59.652 218.453 60.48 218.453 61.428C218.453 62.376 218.267 63.204 217.895 63.912C217.535 64.62 217.019 65.166 216.347 65.55C215.675 65.934 214.901 66.126 214.025 66.126ZM214.007 64.686C214.847 64.686 215.489 64.41 215.933 63.858C216.377 63.306 216.599 62.496 216.599 61.428C216.599 60.384 216.371 59.58 215.915 59.016C215.471 58.452 214.841 58.17 214.025 58.17C213.197 58.17 212.555 58.452 212.099 59.016C211.643 59.58 211.415 60.384 211.415 61.428C211.415 62.496 211.637 63.306 212.081 63.858C212.537 64.41 213.179 64.686 214.007 64.686ZM228.462 56.928V66H226.698V64.488C226.41 65.016 226.014 65.424 225.51 65.712C225.006 65.988 224.436 66.126 223.8 66.126C221.616 66.126 220.524 64.914 220.524 62.49V56.928H222.324V62.472C222.324 63.216 222.474 63.768 222.774 64.128C223.086 64.476 223.554 64.65 224.178 64.65C224.922 64.65 225.516 64.41 225.96 63.93C226.416 63.45 226.644 62.814 226.644 62.022V56.928H228.462ZM235.643 56.712C235.919 56.712 236.207 56.754 236.507 56.838L236.471 58.494C236.147 58.374 235.793 58.314 235.409 58.314C234.581 58.314 233.957 58.566 233.537 59.07C233.129 59.562 232.925 60.186 232.925 60.942V66H231.125V59.484C231.125 58.536 231.077 57.684 230.981 56.928H232.673L232.835 58.566C233.075 57.966 233.447 57.51 233.951 57.198C234.455 56.874 235.019 56.712 235.643 56.712ZM246.633 66.126C245.721 66.126 244.923 65.934 244.239 65.55C243.567 65.166 243.051 64.626 242.691 63.93C242.331 63.222 242.151 62.4 242.151 61.464C242.151 60.528 242.337 59.7 242.709 58.98C243.093 58.26 243.627 57.702 244.311 57.306C244.995 56.91 245.793 56.712 246.705 56.712C247.341 56.712 247.953 56.82 248.541 57.036C249.129 57.24 249.603 57.522 249.963 57.882L249.405 59.196C248.553 58.524 247.695 58.188 246.831 58.188C245.955 58.188 245.271 58.476 244.779 59.052C244.287 59.616 244.041 60.414 244.041 61.446C244.041 62.478 244.287 63.276 244.779 63.84C245.271 64.392 245.955 64.668 246.831 64.668C247.719 64.668 248.577 64.332 249.405 63.66L249.963 64.974C249.579 65.334 249.087 65.616 248.487 65.82C247.899 66.024 247.281 66.126 246.633 66.126ZM255.58 66.126C254.692 66.126 253.912 65.934 253.24 65.55C252.568 65.166 252.046 64.62 251.674 63.912C251.314 63.204 251.134 62.376 251.134 61.428C251.134 60.48 251.314 59.652 251.674 58.944C252.046 58.224 252.568 57.672 253.24 57.288C253.912 56.904 254.692 56.712 255.58 56.712C256.456 56.712 257.23 56.904 257.902 57.288C258.574 57.672 259.09 58.224 259.45 58.944C259.822 59.652 260.008 60.48 260.008 61.428C260.008 62.376 259.822 63.204 259.45 63.912C259.09 64.62 258.574 65.166 257.902 65.55C257.23 65.934 256.456 66.126 255.58 66.126ZM255.562 64.686C256.402 64.686 257.044 64.41 257.488 63.858C257.932 63.306 258.154 62.496 258.154 61.428C258.154 60.384 257.926 59.58 257.47 59.016C257.026 58.452 256.396 58.17 255.58 58.17C254.752 58.17 254.11 58.452 253.654 59.016C253.198 59.58 252.97 60.384 252.97 61.428C252.97 62.496 253.192 63.306 253.636 63.858C254.092 64.41 254.734 64.686 255.562 64.686ZM272.483 56.712C274.499 56.712 275.507 57.924 275.507 60.348V66H273.689V60.438C273.689 59.658 273.551 59.088 273.275 58.728C273.011 58.368 272.579 58.188 271.979 58.188C271.283 58.188 270.731 58.428 270.323 58.908C269.927 59.388 269.729 60.042 269.729 60.87V66H267.911V60.438C267.911 59.658 267.773 59.088 267.497 58.728C267.233 58.368 266.801 58.188 266.201 58.188C265.505 58.188 264.953 58.428 264.545 58.908C264.137 59.388 263.933 60.042 263.933 60.87V66H262.133V59.484C262.133 58.536 262.085 57.684 261.989 56.928H263.681L263.843 58.44C264.107 57.888 264.485 57.462 264.977 57.162C265.469 56.862 266.045 56.712 266.705 56.712C268.109 56.712 269.027 57.294 269.459 58.458C269.735 57.918 270.137 57.492 270.665 57.18C271.205 56.868 271.811 56.712 272.483 56.712ZM288.461 56.712C290.477 56.712 291.485 57.924 291.485 60.348V66H289.667V60.438C289.667 59.658 289.529 59.088 289.253 58.728C288.989 58.368 288.557 58.188 287.957 58.188C287.261 58.188 286.709 58.428 286.301 58.908C285.905 59.388 285.707 60.042 285.707 60.87V66H283.889V60.438C283.889 59.658 283.751 59.088 283.475 58.728C283.211 58.368 282.779 58.188 282.179 58.188C281.483 58.188 280.931 58.428 280.523 58.908C280.115 59.388 279.911 60.042 279.911 60.87V66H278.111V59.484C278.111 58.536 278.063 57.684 277.967 56.928H279.659L279.821 58.44C280.085 57.888 280.463 57.462 280.955 57.162C281.447 56.862 282.023 56.712 282.683 56.712C284.087 56.712 285.005 57.294 285.437 58.458C285.713 57.918 286.115 57.492 286.643 57.18C287.183 56.868 287.789 56.712 288.461 56.712ZM301.974 56.928V66H300.21V64.488C299.922 65.016 299.526 65.424 299.022 65.712C298.518 65.988 297.948 66.126 297.312 66.126C295.128 66.126 294.036 64.914 294.036 62.49V56.928H295.836V62.472C295.836 63.216 295.986 63.768 296.286 64.128C296.598 64.476 297.066 64.65 297.69 64.65C298.434 64.65 299.028 64.41 299.472 63.93C299.928 63.45 300.156 62.814 300.156 62.022V56.928H301.974ZM309.461 56.712C311.633 56.712 312.719 57.924 312.719 60.348V66H310.901V60.456C310.901 59.664 310.745 59.088 310.433 58.728C310.133 58.368 309.647 58.188 308.975 58.188C308.207 58.188 307.589 58.428 307.121 58.908C306.665 59.388 306.437 60.03 306.437 60.834V66H304.637V59.484C304.637 58.536 304.589 57.684 304.493 56.928H306.185L306.347 58.494C306.635 57.918 307.049 57.48 307.589 57.18C308.141 56.868 308.765 56.712 309.461 56.712ZM315.307 56.928H317.107V66H315.307V56.928ZM317.251 52.968V54.876H315.145V52.968H317.251ZM322.129 58.332V62.886C322.129 63.51 322.261 63.954 322.525 64.218C322.801 64.47 323.179 64.596 323.659 64.596C323.971 64.596 324.289 64.548 324.613 64.452V65.928C324.217 66.06 323.767 66.126 323.263 66.126C322.327 66.126 321.601 65.862 321.085 65.334C320.569 64.806 320.311 64.038 320.311 63.03V58.332H318.547V56.928H320.311V54.66L322.129 54.03V56.928H324.631V58.332H322.129ZM334.678 56.928L330.448 66.738C329.98 67.806 329.392 68.586 328.684 69.078C327.988 69.582 327.124 69.918 326.092 70.086L325.696 68.682C326.548 68.49 327.19 68.238 327.622 67.926C328.066 67.626 328.42 67.17 328.684 66.558L329.008 65.802L325.192 56.928H327.118L329.962 63.948L332.86 56.928H334.678Z" fill="black" fill-opacity="0.75"/>
<rect width="30" height="30" fill="#EE1616"/>
<path fill-rule="evenodd" clip-rule="evenodd" d="M17.8293 24C17.9398 23.6872 18 23.3506 18 23C18 21.3431 16.6569 20 15 20C13.3431 20 12 21.3431 12 23C12 23.3506 12.0602 23.6872 12.1707 24H0V26H15H30V24H17.8293Z" fill="white"/>
</svg>
