<svg width="24" height="24" viewBox="0 0 24 24" fill="none" xmlns="http://www.w3.org/2000/svg">
<path d="M20.5257 24.021V20.5859H24V24.021H20.5257ZM0 24.021V20.5859H3.47429V24.021H0ZM10.4686 24.021V20.5859H6.99428V17.1508H10.4686V13.7157H3.52001V17.1508H0.0457171V10.2805H3.52001V3.41031H6.99428V10.2805H17.0514V7.25764H13.5771V0.0209961H17.0514V3.45611H20.5257V10.3263H24V17.1966H20.5257V13.7615H13.9429V17.1966H17.4171V20.6317H13.9429V24.0668L10.4686 24.021ZM20.5257 7.25764V0.0209961H24V7.25764H20.5257ZM6.94858 7.25764V0.0209961H10.4229V7.25764H6.94858ZM0 7.25764V0.0209961H3.47429V7.25764H0Z" fill="#EE1616"/>
</svg>
